<svg width="237" height="351" viewBox="0 0 237 351" fill="none" xmlns="http://www.w3.org/2000/svg">
<path d="M64.2082 150.425C64.6521 148.644 63.8542 147.464 62.2078 147.054C59.7354 146.492 56.9202 146.244 55.3581 148.509C52.6777 152.403 53.4138 157.19 53.4981 161.528C53.5599 164.9 57.0382 162.877 58.9543 163.214C60.8704 163.551 62.8877 163.439 64.8937 163.613C77.5705 164.737 78.9415 166.282 77.9694 178.785C77.6323 183.241 77.0029 187.674 76.6995 192.13C76.3286 197.637 74.671 202.413 82.4872 206.127C89.4718 209.448 90.6405 219.383 94.1131 226.502C95.1752 228.683 94.6357 231.672 98.3106 230.7C102.092 229.694 107.43 232.307 109.178 226.362C110.864 220.636 117.691 217.585 122.377 221.546C125.473 224.154 127.17 222.827 129.384 221.619C152.844 208.768 166.122 189.68 165.712 162.197C165.633 156.988 165.425 151.712 166.173 146.593C166.701 142.957 168.842 138.816 172.989 138.765C177.276 138.715 176.742 143.514 177.327 146.329C181.727 167.569 176.119 186.612 163.897 204.015C156.508 214.534 146.849 222.642 136.037 229.452C135.852 230.756 133.818 230.807 134.076 232.408C134.576 233.245 134.846 234.094 134.397 234.998C123.979 236.549 123.928 236.555 125.518 246.686C127.558 259.655 129.682 272.624 129.896 285.784C129.946 288.863 130.677 289.909 134.065 290.032C140.634 290.263 145.18 292.645 142.719 300.804C141.848 303.67 143.179 305.957 147.068 305.676C164.706 304.417 174.472 322.808 173.051 339.284C172.865 341.492 171.972 343.009 170.056 344.004C159.621 349.404 148.473 351.511 136.965 349.589C130.784 348.561 127.412 342.931 123.687 338.278C119.191 332.659 114.224 328.163 106.211 330.518C103.902 326.191 106.436 322.348 107.638 318.487C109.026 313.992 111.01 309.738 112.476 305.181C109.875 306.339 107.15 306.743 104.61 307.648C101.351 308.772 98.5691 310.345 100.429 314.678C100.991 316.026 101.457 317.695 99.7941 318.611C98.6309 319.24 97.3891 318.465 96.3102 317.852C93.939 316.504 91.7531 314.863 89.4661 313.357C83.184 309.317 76.84 309.311 70.5353 313.11C63.8429 317.15 60.6063 323.224 60.4602 331.035C60.3872 335.114 62.4101 337.435 66.2254 338.587C77.0535 341.852 87.2353 340.778 96.8328 334.564C99.1423 333.063 101.16 330.035 104.655 332.125C104.093 337.497 100.019 340.554 95.9225 342.239C85.4653 346.499 74.4799 348.488 63.2361 345.262C54.9872 342.897 52.2001 338.475 53.0486 329.81C54.9085 310.57 69.9172 300.63 88.6851 306.468C91.2811 307.283 93.2703 306.929 94.6807 305.187C96.4339 303.018 93.4108 302.625 92.596 301.45C88.7637 295.96 90.5675 289.751 97.6532 287.442C101.62 286.144 101.727 284.795 100.867 281.261C97.8442 268.797 95.2482 256.233 92.3544 243.051C88.775 246.624 85.2406 248.602 80.9307 245.298C78.9022 243.742 76.8006 245.169 75.5813 246.214C74.1709 247.422 76.5927 248.394 77.1153 249.586C78.9022 253.66 75.2947 258.318 78.6718 262.268C79.7001 263.476 79.4585 265.336 80.7453 266.814C86.2183 273.113 85.1057 280.244 77.8907 283.817C69.0462 288.2 59.4994 287.189 50.6155 284.514C42.8611 282.177 39.3211 271.427 44.9346 263.909C49.8682 257.306 44.884 249.299 50.3458 243.427C51.1212 242.59 48.6264 239.561 45.9516 239.539C40.5629 239.488 39.7706 236.021 39.6189 231.633C39.3492 223.957 38.7086 216.292 38.3377 208.594C38.2029 205.785 37.6859 203.228 35.6462 201.16C39.0177 199.379 39.0177 196.665 37.8264 193.557C37.2645 185.691 36.8543 177.779 36.1407 169.907C35.826 166.344 36.8487 163.827 40.5966 163.787C46.2944 163.725 46.6259 160.416 46.3281 155.994C45.9685 150.728 46.418 145.598 50.8234 141.71C55.8301 137.265 62.6629 139.316 68.3101 136.737C70.3162 135.821 71.4962 139.316 71.7322 141.536C72.1199 145.143 71.6816 148.599 67.7201 150.15C66.6525 150.566 65.2927 150.24 64.0677 150.251L64.2082 150.425Z" fill="#2A2422"/>
<path d="M104.627 332.192C100.879 331.569 99.9458 335.356 97.4903 336.789C85.943 343.532 74.0248 343.841 61.7021 339.317C58.8363 338.267 58.398 336.154 58.2351 333.49C57.6394 323.792 62.4494 314.779 70.5971 310.643C78.7449 306.507 87.1342 308.025 95.1864 315.138C96.4395 316.262 97.2711 317.948 99.2547 318.111C99.4401 317.673 99.9065 317.077 99.766 316.824C95.7877 309.738 97.4397 306.822 106.177 305.192C108.841 304.698 111.414 303.748 115.168 302.686C112.634 312.43 107.779 321.044 106.177 330.574L104.627 332.192Z" fill="#FDF9F2"/>
<path d="M171.657 220.198C189.683 210.432 203.635 196.373 214.671 179.257C214.114 178.331 213.886 177.244 214.025 176.172C215.104 173.463 216.587 171.087 219.285 169.687C237.463 130.837 236.311 93.0931 212.834 56.6194C211.918 55.1978 211.221 53.63 210.423 52.1241C209.755 49.736 210.985 48.9942 213.104 49.0785C252.511 99.336 237.238 168.356 199.539 204.273C191.318 212.106 182.474 219.029 171.73 223.142C170.82 222.192 170.91 221.203 171.657 220.198Z" fill="#2D2725"/>
<path d="M164.15 14.9143C133.571 1.6419 103.008 2.88935 72.457 15.0042C69.8835 15.5268 68.7428 14.4423 68.9226 11.8631C103.598 -3.66817 138.077 -2.80282 172.225 13.4308C177.282 15.8414 181.816 19.3927 186.593 22.4214C186.688 24.8376 185.828 26.1581 183.159 25.4052C179.99 25.068 181.12 26.8774 181.474 28.5519C182.699 34.5475 179.788 37.8459 174.202 39.2956C166.139 41.386 156.867 37.5088 152.164 30.0578C151.484 28.7935 152.164 28.1585 153.249 27.7259C156.115 28.0518 158.059 30.1421 160.408 31.4513C162.397 32.9884 164.839 33.8241 167.353 33.8282C169.19 33.8282 171.022 33.8282 172.494 32.4628C175.304 29.125 173.101 27.0291 170.499 25.4052C168.546 24.1541 166.349 23.3319 164.055 22.9928C161.76 22.6538 159.419 22.8057 157.188 23.4385C156.466 23.4605 155.744 23.3656 155.052 23.1575C154.041 22.5956 153.221 21.955 153.794 20.6177C155.266 18.6454 157.474 18.0666 159.688 17.5047C162.065 16.5719 164.65 17.1788 166.117 16.8079C165.555 16.9653 164.937 15.7852 164.15 14.9143Z" fill="#2D2725"/>
<path d="M68.9226 11.8631C69.2526 12.6092 69.7388 13.2757 70.3486 13.8176C70.9584 14.3595 71.6774 14.7641 72.457 15.0042C51.9978 25.2928 34.5954 39.0709 21.6489 58.3164C12.5179 71.8866 6.63464 86.4963 4.68481 102.707C3.23507 105.82 4.81967 109.321 3.45423 112.451C4.06726 116.361 4.06726 120.342 3.45423 124.251C4.93768 127.87 3.10022 131.854 4.71853 135.45C5.80302 138.726 4.3589 142.429 6.4436 145.531C6.72455 147.385 8.50019 149.706 4.93205 150.352C2.4802 145.506 1.35938 140.096 1.6842 134.675C0.369324 131.584 1.95954 128.134 0.509804 125.055C-0.181047 120.092 -0.169699 115.056 0.543518 110.097C1.99325 107.141 0.256946 103.781 1.72354 100.825C2.95412 84.1306 9.00029 69.0826 17.9516 55.1865C30.5384 35.6488 47.1036 20.6289 68.9226 11.8631Z" fill="#2F2928"/>
<path d="M183.159 25.4052C183.906 25.1712 184.597 24.7854 185.188 24.2719C185.778 23.7585 186.257 23.1285 186.593 22.4214C197.297 29.4509 206.366 38.1156 213.104 49.0898L210.423 52.1353C202.405 42.1502 193.094 33.4518 183.159 25.4052Z" fill="#322C2A"/>
<path d="M4.96014 150.352C6.6796 149.127 6.25254 147.228 6.47169 145.531L12.5797 166.676C12.4989 166.818 12.3834 166.937 12.244 167.023C12.1045 167.108 11.9457 167.157 11.7823 167.164C11.6189 167.171 11.4563 167.137 11.3098 167.064C11.1633 166.992 11.0376 166.883 10.9445 166.749C7.60113 161.77 6.15702 156.1 4.96014 150.352Z" fill="#312B29"/>
<path d="M37.7815 193.597C39.6639 196.878 40.7652 199.941 35.6012 201.199C32.1455 198.193 27.8131 195.884 27.2175 190.613C32.0218 191.484 32.9265 197.204 37.3319 198.778C37.4949 196.996 37.6354 195.299 37.7815 193.597Z" fill="#352F2D"/>
<path d="M153.912 228.031L165.785 223.485C166.403 223.895 167.269 224.047 167.431 224.946L157.177 229.548C155.659 229.964 153.923 230.863 153.912 228.031Z" fill="#2A2422"/>
<path d="M134.397 235.049L132.93 232.548C134.655 230.335 137.347 232.324 139.296 231.093C141.263 230.138 142.926 233.599 144.972 231.486C142.426 235.577 138.055 234.262 134.397 235.049Z" fill="#4F4A48"/>
<path d="M153.912 228.031L157.176 229.548C153.389 230.672 149.872 234.313 145.573 230.829C147.944 228.705 151.024 228.638 153.912 228.031Z" fill="#4C4745"/>
<path d="M15.7151 171.07C17.6016 173.276 19.0013 175.855 19.8227 178.639C19.7624 179.033 19.5751 179.398 19.2892 179.677C19.0033 179.955 18.6343 180.134 18.2381 180.184C15.7151 177.756 14.3047 174.672 13.1247 171.457C13.4404 171.096 13.8742 170.859 14.3487 170.788C14.8232 170.717 15.3075 170.817 15.7151 171.07Z" fill="#443F3D"/>
<path d="M18.2381 180.184L19.8227 178.639C20.7443 180.163 21.6677 181.682 22.5929 183.196C22.4827 183.506 22.3058 183.787 22.0747 184.021C21.8436 184.255 21.564 184.436 21.2556 184.55C19.772 183.49 18.7048 181.946 18.2381 180.184Z" fill="#2A2422"/>
<path d="M21.2556 184.55L22.593 183.196C24.2787 184.78 26.0375 186.331 25.6554 189.006C22.9919 188.708 22.0423 186.708 21.2556 184.55Z" fill="#2A2422"/>
<path d="M167.431 224.946L165.785 223.485L171.657 220.198C171.657 221.187 171.702 222.17 171.73 223.153C170.297 223.76 169.291 225.373 167.431 224.946Z" fill="#2A2422"/>
<path d="M15.7151 171.07L13.1247 171.457C12.3755 169.888 11.6413 168.318 10.922 166.749L12.5572 166.676C15.0746 167.08 15.2207 169.204 15.7151 171.07Z" fill="#3F3938"/>
<path d="M1.72916 100.825C1.49315 103.938 2.94288 107.265 0.549136 110.097C0.352467 106.933 0.189515 103.769 1.72916 100.825Z" fill="#312B29"/>
<path d="M0.515437 125.055C2.98785 128.005 1.46507 131.444 1.68983 134.675C0.0771432 131.618 0.346863 128.331 0.515437 125.055Z" fill="#312B29"/>
<path d="M79.3573 107.383C79.6158 98.8976 80.5935 90.8398 85.9149 84.0351C91.3429 77.0842 98.4174 76.9381 102.637 84.4396C110.83 98.9876 110.74 114.26 104.188 129.393C102.39 133.54 98.7152 136.697 93.7704 136.697C88.5952 136.697 85.9991 132.826 83.9762 128.746C80.6104 121.975 79.5933 114.637 79.3573 107.383Z" fill="#2B2523"/>
<path d="M36.2137 106.894C36.7756 98.1391 37.6971 89.5475 44.0355 82.6528C48.6769 77.5956 53.9701 77.5956 58.4654 82.7764C67.692 93.346 67.7313 122.56 58.5385 133.231C54.0994 138.378 46.8675 137.844 42.7094 131.775C37.5904 124.307 36.7306 115.637 36.2137 106.894Z" fill="#2B2523"/>
<path d="M112.139 13.3016C118.82 8.67704 126.187 8.80628 133.464 10.9247C144.764 14.2287 147.562 22.6574 141.893 35.0083C146.096 35.1993 150.366 35.0701 154.041 37.5088C156.851 39.3799 158.744 41.8523 158.57 45.4767C158.39 49.2078 156.064 51.1688 152.951 52.568C142.409 57.2824 133.346 52.6186 131.716 41.2848C131.34 38.6494 130.328 39.4867 128.907 39.689C123.743 40.4442 118.475 39.9922 113.516 38.3685C103.48 35.0982 101.154 29.0126 106.065 19.1623C107.352 18.5555 107.931 19.3534 108.408 20.348C108.234 25.0736 108.318 29.6588 114.336 30.9231C115.316 31.1798 116.26 31.5573 117.146 32.047C120.776 34.6261 124.642 33.9406 128.53 32.8449C129.945 32.459 131.325 31.9533 132.655 31.3333C139.353 27.709 139.651 21.9269 133.329 17.6901C129.924 15.4031 126.063 15.0154 122.091 15.2851C119.658 15.4537 117.326 16.409 114.831 16.1617C113.347 15.7403 111.723 15.4368 112.139 13.3016Z" fill="#2E2826"/>
<path d="M104.087 61.6654C107.121 61.8339 109.976 62.5195 112.235 64.6885C114.921 67.262 116.848 70.2795 114.112 73.7409C111.375 77.2022 108.133 76.4942 104.992 74.0499C103.632 72.9935 102.295 71.8865 100.85 70.9538C98.659 69.5434 95.2819 68.914 96.1135 65.3346C97.1137 60.9461 101.21 62.4408 104.087 61.6654Z" fill="#342E2C"/>
<path d="M33.8986 76.882C32.078 76.8089 30.2406 75.9998 29.9652 73.1621C29.6169 69.2287 36.017 62.615 40.6416 62.2779C43.895 62.0362 46.7102 62.7442 47.008 66.7226C47.2946 70.1671 39.2817 76.5954 33.8986 76.882Z" fill="#37312F"/>
<path d="M198.944 177.341C195.01 187.275 194.167 188.579 188.593 192.445C187.795 188.545 190.245 185.764 191.403 182.786C194.594 174.677 197.263 166.456 198.511 157.809C198.663 156.78 198.224 154.932 200.23 155.505C200.916 155.701 201.275 157.011 201.787 157.814C202.793 161.41 204.096 164.973 203.062 168.805C202.152 171.862 201.787 175.205 198.944 177.341Z" fill="#332D2B"/>
<path d="M187.396 173.154C189.026 161.978 191.054 152.65 189.857 142.761C197.831 148.116 197.067 163.692 187.396 173.154Z" fill="#433E3C"/>
<path d="M204.293 160.714C204.855 155.876 205.417 151.038 206.024 146.059C212.98 153.364 210.182 172.834 201.747 177.02C199.46 174.357 201.798 171.991 202.219 169.502C202.382 166.473 202.484 163.4 204.293 160.714Z" fill="#3B3634"/>
<path d="M214.907 175.885L214.671 179.257C208.929 180.751 208.204 178.464 209.957 173.508C211.879 168.063 213.278 162.427 214.98 156.651C219.206 159.461 217.335 163.147 217.666 166.322C217.06 169.586 217.548 173.188 214.907 175.885Z" fill="#443F3D"/>
<path d="M72.1368 125.122C75.3846 127.977 80.3519 129.443 80.3182 135.141C77.194 136.742 76.0983 133.416 74.0079 132.669C71.7603 131.859 69.7205 130.23 67.1919 132.376C66.1805 133.236 66.1131 136.782 63.7587 134.54C61.8369 132.708 63.6575 130.679 64.6071 128.612C65.8827 125.841 69.4284 127.645 70.4286 125.032C70.6813 124.851 70.988 124.762 71.2984 124.778C71.6088 124.794 71.9044 124.916 72.1368 125.122Z" fill="#383230"/>
<path d="M83.4818 39.217C78.3291 45.6284 73.4011 50.2024 67.1863 54.1582C68.4563 45.2407 74.553 39.4754 83.4818 39.217Z" fill="#383331"/>
<path d="M216.441 130.303C220.678 136.018 219.982 142.592 219.206 149.138C219.066 150.301 218.329 151.605 216.958 151.257C216.273 151.082 215.447 149.846 215.391 149.037C214.952 142.856 214.694 136.675 214.374 130.494L216.441 130.303Z" fill="#383331"/>
<path d="M68.4562 39.0596C71.1702 31.3895 76.1432 28.3833 81.2285 25.4782C82.3074 24.8657 83.7515 24.5567 84.6674 25.6187C85.735 26.8493 84.6168 27.8663 83.7515 28.698C79.6945 32.5527 75.6374 36.531 68.4562 39.0596Z" fill="#3D3735"/>
<path d="M54.8355 42.7907C56.6954 34.7947 61.1514 31.3614 66.5401 28.7429C67.7089 28.181 69.0743 27.8383 69.9116 28.9452C70.7488 30.0522 69.8273 31.2378 68.9226 32.0751C64.9836 35.6938 61.1514 39.4361 54.8355 42.7907Z" fill="#3A3433"/>
<path d="M64.0227 150.29C66.9953 155.623 72.3559 154.51 78.1267 154.825C73.6708 160.444 69.0238 160.742 64.3262 157.516C61.8425 155.831 59.0049 152.847 64.2138 150.425L64.0227 150.29Z" fill="#35302E"/>
<path d="M48.5083 60.609C47.4688 53.1974 50.2727 49.219 54.8748 46.2746C55.9537 45.5891 57.4259 44.3472 58.8812 45.7127C60.567 47.2692 58.8531 48.4099 58.0552 49.3932C55.3243 52.7647 52.4305 56.0238 48.5083 60.609Z" fill="#3C3634"/>
<path d="M40.827 46.0836C40.3775 44.6338 39.9841 44.0607 40.1359 43.746C42.5127 38.7843 45.8617 34.7891 51.3741 33.1539C51.6382 33.0697 52.7058 34.2384 52.5991 34.5531C50.6717 40.2509 46.1034 43.2234 40.827 46.0836Z" fill="#3A3433"/>
<path d="M72.1367 125.122L70.451 125.032C69.3272 123.453 65.7253 122.846 66.8435 120.728C68.2933 117.991 72.0805 118.924 74.8283 118.278C75.1901 118.211 75.5626 118.228 75.9165 118.328C76.2705 118.429 76.5964 118.61 76.8686 118.858C77.1407 119.106 77.3519 119.413 77.4853 119.756C77.6188 120.099 77.671 120.468 77.6379 120.835C77.4468 124.189 75.1992 125.257 72.1367 125.122Z" fill="#474140"/>
<path d="M112.139 13.3016C112.729 14.5771 113.971 14.5434 115.089 14.7513C115.259 14.8919 115.392 15.0706 115.479 15.2728C115.566 15.475 115.604 15.6949 115.589 15.9145C115.548 16.3453 115.481 16.5644 115.387 16.5719C113.066 18.4206 111.325 21.3032 107.728 20.8705L106.043 19.1848C107.453 16.555 109.122 14.2231 112.139 13.3016Z" fill="#4A4543"/>
<path d="M153.648 28.1979L152.181 30.0578C149.506 26.3492 149.934 23.1856 153.828 20.6177L155.564 22.3034C156.272 24.7309 155.704 26.6919 153.648 28.1979Z" fill="#3D3836"/>
<path d="M204.293 160.714C203.795 163.71 203.291 166.692 202.781 169.659C202.704 169.774 202.601 169.869 202.48 169.936C202.359 170.002 202.224 170.039 202.086 170.043C201.948 170.047 201.811 170.018 201.687 169.958C201.562 169.898 201.454 169.809 201.371 169.699C201.517 165.724 201.661 161.755 201.804 157.792L204.293 160.714Z" fill="#E6E5E5"/>
<path d="M214.907 175.885C215.829 172.69 216.749 169.493 217.666 166.293L219.285 169.665C218.549 172.267 218.004 174.975 214.907 175.885Z" fill="#E2E1E1"/>
<path d="M201.371 169.704C201.843 169.671 202.309 169.654 202.781 169.665C202.437 172.115 202.092 174.569 201.747 177.026L198.938 177.324C199.674 174.761 199.522 171.952 201.371 169.704Z" fill="#C4C2C2"/>
<path d="M164.15 14.9143C165.701 14.9143 166.875 15.5155 167.611 17.5047H159.694L164.15 14.9143Z" fill="#A5A3A2"/>
<path d="M139.297 231.093C137.414 232.627 135.06 232.11 132.93 232.548C132.295 232.307 131.334 232.239 131.093 231.784C130.435 230.548 131.767 231.11 132.16 230.936C133.413 230.374 134.739 229.969 136.037 229.503L139.297 231.093Z" fill="#D5D4D4"/>
<path d="M4.72415 135.428C2.02136 131.955 3.84195 127.977 3.46547 124.234C4.88711 127.876 4.75225 131.668 4.72415 135.428Z" fill="#312B29"/>
<path d="M3.4542 112.457C3.78573 109.198 2.1618 105.714 4.68478 102.713C4.6904 106.011 4.96013 109.344 3.4542 112.457Z" fill="#312B29"/>
<path d="M129.997 318.751C132.065 317.004 133.975 315.02 136.223 313.548C148.298 305.642 161.206 310.137 165.881 323.769C170.623 337.581 169.325 340.115 155.558 343.936C140.038 348.241 134.037 345.532 122.613 329.079C122.715 328.793 122.81 328.517 122.9 328.225C123.597 326.882 124.204 325.5 124.923 324.168C126.367 322.134 127.53 319.83 129.997 318.751Z" fill="#FDF9F2"/>
<path d="M42.3217 214.298V171.244C50.9639 173.576 60.4433 174.997 70.1026 172.958C72.8785 172.368 73.5359 173.598 73.2943 176.149C72.221 187.478 71.1815 198.811 70.2656 210.156C69.9509 214.05 67.4167 214.562 64.5453 214.028C61.1503 213.37 57.816 212.43 54.577 211.218C50.9639 209.887 47.834 209.993 45.1256 212.994C44.294 213.663 43.9063 215.264 42.3217 214.298Z" fill="#FDF9F2"/>
<path d="M56.9595 225.109C55.8357 224.609 54.6725 224.159 53.588 223.597C50.4919 222.013 46.4518 220.226 48.3735 216.129C50.1772 212.275 53.5543 215.787 56.2009 216.259C57.8867 216.557 59.4937 217.304 61.157 217.742C70.9062 220.333 73.7382 218.445 75.6937 208.077C83.6166 210.836 84.9371 214.556 80.5149 221.001C77.1434 225.901 75.896 231.307 77.267 237.224C77.6772 238.977 78.8516 240.724 75.8622 241.955C69.2766 244.675 57.6057 242.556 52.3856 236.965C56.5212 236.937 60.213 239.657 64.9106 237.527C59.7354 232.414 50.5537 233.65 47.5812 225.896C49.9244 223.845 51.5427 227.508 53.5656 226.502C55.875 227.913 58.2575 225.901 61.2132 226.856C59.3701 226.132 57.8979 226.238 56.9595 225.109Z" fill="#FDF9F2"/>
<path d="M112.881 287.577C111.589 272.63 108.723 258.604 105.188 244.72C104.39 241.584 104.272 239.904 108.369 239.336C111.926 238.842 113.083 239.426 113.606 243.028C115.292 254.519 117.27 265.954 119.225 277.4C120.338 284.02 120.399 284.008 112.881 287.577Z" fill="#FDF9F2"/>
<path d="M122.613 329.079C111.538 324.342 112.117 324.494 115.112 313.16C117.062 305.782 119.607 303.198 127.294 306.08C130.564 307.305 134.796 305.962 140.021 305.721C135.711 310.39 129.834 311.514 128.221 316.847C127.763 319.466 126.656 321.929 125.001 324.011C123.878 325.64 124.204 327.944 122.45 329.282L122.613 329.079Z" fill="#FAFAFA"/>
<path d="M49.3119 264.561C49.7277 261.605 50.4975 258.824 53.6611 256.239C53.279 261.105 56.7235 262.032 59.6342 263.544C61.7863 264.667 64.9049 265.724 63.9047 268.696C62.7191 272.225 59.2184 271.36 56.2346 271.264C53.6723 271.186 52.7676 267.359 49.767 268.657C48.5533 267.41 48.7893 266.005 49.3119 264.561Z" fill="#F6F6F6"/>
<path d="M130.885 301.237C126.289 301.464 121.73 300.314 117.792 297.933C116.494 297.196 116.106 296.101 116.865 294.848C117.517 293.724 118.826 292.639 119.787 293.898C122.816 297.865 126.013 294.741 129.165 294.494C132.537 294.235 137.796 293.05 138.234 296.679C138.813 301.512 133.115 300.444 130.885 301.237Z" fill="#F7F6F6"/>
<path d="M105.896 301.096C105.43 301.096 105.183 301.096 104.941 301.096C101.474 300.911 97.8723 300.781 95.9169 297.32C94.9391 295.578 96.1304 293.915 97.5296 292.825C101.356 289.886 104.031 292.96 106.52 295.072C108.206 296.539 112.325 296.022 111.544 299.326C110.954 301.804 107.728 300.63 105.896 301.096Z" fill="#F5F5F4"/>
<path d="M49.3119 264.561L49.767 268.657C51.6494 277.378 58.4767 276.31 65.1297 276.608C61.629 280.901 57.1618 282.727 52.2675 279.979C45.6201 276.305 47.0474 270.343 49.3119 264.561Z" fill="#E9E8E8"/>
<path d="M74.6373 253.244C67.2144 252.727 61.3874 252.345 55.5603 251.901C54.0713 251.788 52.5316 251.451 52.4361 249.53C52.3574 248.102 53.2846 246.911 54.5995 247.147C60.8816 248.276 68.3607 244.916 74.6373 253.244Z" fill="#FDF9F2"/>
<path d="M55.3243 257.666C61.5054 257.666 65.3882 257.604 69.2991 257.666C75.0418 257.778 72.4233 263.465 74.7047 265.904C72.9066 267.297 70.0183 267.145 69.344 265.982C66.63 261.296 61.7133 260.442 55.3243 257.666Z" fill="#F3F2F2"/>
<path d="M82.1837 233.228C82.5996 228.919 81.4701 223.075 86.5498 222.799C90.073 222.608 93.0062 227.143 89.2582 231.031C87.904 232.43 84.3977 230.953 82.1837 233.228Z" fill="#FDF9F2"/>
<path d="M42.3217 214.298L45.1313 212.994C42.6139 216.219 46.3169 220.518 42.7937 224.766C41.6586 220.675 41.9171 217.495 42.3217 214.298Z" fill="#B0AEAD"/>
<path d="M43.8501 230.953C45.474 231.953 47.1036 233.099 47.4126 235.223C47.6149 236.622 46.2888 236.858 45.4235 236.723C43.3388 236.392 41.653 235.465 42.0183 232.858C42.1644 231.807 42.5296 230.992 43.8501 230.953Z" fill="#D1D0CF"/>
<path d="M56.9595 225.109L64.3093 226.176C60.4996 228.503 56.9708 228.491 53.5487 226.525L56.9595 225.109Z" fill="#2B2523"/>
<path d="M124.31 323.32C125.03 320.808 126.159 318.538 128.244 316.847L130.008 318.751C128.637 320.89 127.264 323.031 125.889 325.174C124.743 325.079 124.647 324.106 124.31 323.32Z" fill="#514C4B"/>
<path d="M70.8219 277.17C70.6365 275.102 70.4454 273.034 70.1195 269.477C74.9182 272.057 73.7045 274.456 70.8219 277.17Z" fill="#F0F0EF"/>
<path d="M78.2897 269.82C81.2173 272.573 80.4755 274.141 78.6269 275.855C77.1771 274.051 77.8683 272.349 78.2897 269.82Z" fill="#777372"/>
<path d="M86.207 242.815C84.746 242.888 83.8919 242.112 83.7514 240.758C83.7233 240.477 84.7067 239.792 85.1899 239.82C86.2407 239.887 87.8028 239.359 88.0782 241C88.2748 242.191 87.151 242.539 86.207 242.815Z" fill="#FDF9F2"/>
<path d="M156.851 22.3315C163.032 19.286 168.55 21.528 173.455 25.0456C177.108 27.6697 178.658 31.2603 173.455 34.3564C172.331 34.9858 171.663 34.289 171.028 33.508C167.308 29.6139 161.818 28.4507 157.812 25.0062C157.036 24.2757 156.401 23.4947 156.851 22.3315Z" fill="#F0F0F0"/>
<path d="M156.851 22.3315L158.75 23.9554C159.582 26.0682 160.644 28.108 160.632 30.468C160.556 31.1193 160.261 31.7255 159.795 32.1874C156.907 32.1481 155.266 30.1927 153.648 28.1979C153.636 26.0799 154.304 24.0141 155.553 22.3034C155.982 22.2141 156.426 22.2238 156.851 22.3315Z" fill="#E7E7E6"/>
<path d="M159.795 32.1875C159.693 32.0107 159.651 31.8057 159.675 31.6031C159.7 31.4005 159.789 31.2112 159.93 31.0636C163.195 29.4116 165.65 30.6647 167.752 33.227C167.861 33.5841 167.879 33.9631 167.802 34.3287C167.725 34.6942 167.557 35.0344 167.313 35.3173C163.981 36.2501 161.61 34.8959 159.795 32.1875Z" fill="#A19F9E"/>
<path d="M167.313 35.2892C167.33 34.8989 167.314 34.5078 167.263 34.1204C168.342 32.2268 169.612 30.9793 171.792 32.755L173.478 34.3564C171.64 36.2107 169.471 35.705 167.313 35.2892Z" fill="#B4B2B2"/>
<path d="M97.0238 81.6976C90.1797 89.0586 87.6399 96.6332 88.2468 105.157C88.4153 107.574 87.0499 110.934 91.0563 111.827C92.4049 112.125 92.6634 113.215 91.7138 113.822C86.6959 117.025 90.2472 122.009 89.1683 126.218C79.8012 111.029 83.5436 84.76 97.0238 81.6976Z" fill="#FDF9F2"/>
<path d="M43.7883 121.987C41.0068 111.81 40.3044 101.516 43.1533 91.3062C44.4289 86.7323 46.0809 81.7537 53.7173 81.8324C48.0364 88.5416 45.2156 95.5993 45.3336 103.556C45.3785 106.557 44.2547 110.097 48.1712 112.013C49.0871 112.457 48.5533 113.659 46.4855 116.098C44.5694 117.604 47.57 121.329 43.7883 121.987Z" fill="#F2F1F1"/>
<path d="M43.7883 121.987C45.9798 120.61 44.1648 117.418 46.463 116.098V127.561L45.474 127.836L43.7883 121.987Z" fill="#D6D5D4"/>
<path d="M114.943 15.937C114.854 15.7456 114.82 15.5328 114.846 15.3231C114.872 15.1134 114.956 14.9152 115.089 14.7513C118.944 13.8466 122.788 12.9532 126.822 13.4083C134.475 14.2625 140.089 18.4656 140.145 24.0847C140.224 31.5974 134.425 33.0753 128.682 34.3508C126.996 34.9858 125.378 35.3173 123.866 33.98C123.574 33.3562 123.945 32.7999 124.074 32.2212C116.82 30.9569 114.696 26.3323 115.685 19.5669C115.775 18.9432 115.011 18.3251 114.6 17.7238C114.481 17.4244 114.449 17.0969 114.51 16.7802C114.571 16.4635 114.721 16.1708 114.943 15.937Z" fill="#FBFBFB"/>
<path d="M144.472 49.5281C140.943 49.3707 138.212 49.3314 135.835 47.6738C134.099 46.4656 133.958 44.7237 134.571 43.0492C135.695 40.0149 138.639 39.2395 141.246 39.2788C144.292 39.3294 141.348 41.2736 141.69 42.2288C142.949 45.797 145.567 45.1845 147.309 43.1785C149.596 40.5319 151.243 40.4644 152.856 43.3695C154.884 46.9826 151.456 47.5389 149.484 48.4267C147.725 49.2471 145.641 49.2977 144.472 49.5281Z" fill="#F2F2F2"/>
<path d="M115.028 17.0046C116.511 17.0495 119.804 16.6 118.916 18.0722C114.454 25.4951 119.287 28.9789 124.125 32.7269C121.315 34.6486 118.573 34.3115 115.837 32.5808L114.291 32.7213C108.56 26.7538 108.74 22.8766 115.028 17.0046Z" fill="#35302E"/>
<path d="M115.028 17.0046C111.044 22.0618 110.982 27.3157 114.291 32.7381C106.902 31.131 105.587 28.7598 107.728 20.8874C109.976 19.0275 111.51 16.0887 114.943 15.9538C115.039 16.1098 115.097 16.2864 115.112 16.469C115.127 16.6517 115.098 16.8353 115.028 17.0046Z" fill="#FDF9F2"/>
<path d="M115.837 32.5976L124.125 32.7437C125.148 34.6936 127.227 33.6372 128.682 34.3564C124.086 35.9691 119.495 37.7504 115.837 32.5976Z" fill="#A4A2A1"/>
<path d="M101.047 65.5819C106.29 64.5761 109.099 65.9977 111.634 71.8866L101.047 65.5819Z" fill="#E9E9E8"/>
<path d="M124.31 323.32L125.878 325.174C125.282 326.995 125.614 329.585 122.462 329.282C122.198 327.04 123.181 325.146 124.31 323.32Z" fill="#2A2422"/>
<path d="M171.792 32.755L167.263 34.1204L159.958 31.0355C158.958 28.7879 157.148 26.6526 158.778 23.9554C162.925 26.0458 166.358 29.524 171.314 30.0859C172.618 30.2376 173.18 31.5581 171.792 32.755Z" fill="#433D3B"/>
</svg>
