<svg width="17" height="16" viewBox="0 0 17 16" fill="none" xmlns="http://www.w3.org/2000/svg">
<path d="M10.6319 9.33332C8.85195 9.33332 5.29861 10.22 5.29861 12V13.3333H15.9653V12C15.9653 10.22 12.4119 9.33332 10.6319 9.33332ZM4.63195 6.66666V4.66666H3.29861V6.66666H1.29861V7.99999H3.29861V9.99999H4.63195V7.99999H6.63195V6.66666M10.6319 7.99999C11.3392 7.99999 12.0175 7.71904 12.5176 7.21894C13.0177 6.71884 13.2986 6.04057 13.2986 5.33332C13.2986 4.62608 13.0177 3.9478 12.5176 3.4477C12.0175 2.94761 11.3392 2.66666 10.6319 2.66666C9.9247 2.66666 9.24643 2.94761 8.74633 3.4477C8.24623 3.9478 7.96528 4.62608 7.96528 5.33332C7.96528 6.04057 8.24623 6.71884 8.74633 7.21894C9.24643 7.71904 9.9247 7.99999 10.6319 7.99999Z" fill="black"/>
</svg>
